<svg width="145" height="29" viewBox="0 0 145 29" fill="none" xmlns="http://www.w3.org/2000/svg">
    <path d="M11.5247 5.7624C11.5247 8.9448 8.94484 11.5247 5.76237 11.5247C2.5799 11.5247 0 8.9448 0 5.7624C0 2.5799 2.5799 0 5.76237 0C8.94484 0 11.5247 2.5799 11.5247 5.7624Z" fill="#050505"/>
    <path d="M35.1807 23.469H38.8289V16.6095H39.0473L44.2029 23.469H48.5501L42.1712 15.3862L48.4191 7.91504H44.0936L39.0473 14.2502H38.8289V7.91504H35.1807V23.469Z" fill="#050505"/>
    <path d="M51.3525 10.7337C52.4884 10.7337 53.2967 9.94732 53.2967 8.83312C53.2967 7.71902 52.4884 6.93262 51.3525 6.93262C50.2165 6.93262 49.4082 7.71902 49.4082 8.83312C49.4082 9.94732 50.2165 10.7337 51.3525 10.7337ZM49.7359 23.4696H52.969V12.2847H49.7359V23.4696Z" fill="#050505"/>
    <path d="M55.1206 23.4696H58.3537V17.1781C58.3537 15.78 59.4023 14.7314 60.713 14.7314C62.0019 14.7314 62.8102 15.6708 62.8102 17.0689V23.4696H66.0434V16.6101C66.0434 13.9231 64.3394 11.957 61.8272 11.957C60.4946 11.957 59.4023 12.5906 58.5722 13.8576H58.3537V12.2847H55.1206V23.4696Z" fill="#050505"/>
    <path d="M73.6119 23.8186C76.3208 23.8186 78.4835 22.5952 79.1825 20.5854L76.43 19.8864C75.9276 20.8257 74.9664 21.4156 73.743 21.4156C72.1701 21.4156 71.0342 20.4107 70.772 18.8159H79.5539C79.5758 18.663 79.5976 18.3353 79.5976 17.8329C79.5976 14.3376 77.1509 11.9346 73.5901 11.9346C69.9856 11.9346 67.4297 14.3158 67.4297 17.7892C67.4297 21.3719 70.0074 23.8186 73.6119 23.8186ZM70.7502 16.8062C71.0123 15.2988 72.0391 14.3376 73.5027 14.3376C74.9882 14.3376 76.1023 15.3425 76.2989 16.8062H70.7502Z" fill="#050505"/>
    <path d="M86.0198 23.863C89.3185 23.863 91.3064 22.443 91.3064 20.0618C91.2409 17.5059 89.1874 16.9598 86.7407 16.6539C85.9543 16.5666 85.4081 16.501 85.0804 16.4355C84.4251 16.3263 83.8134 15.9986 83.8134 15.3651C83.8134 14.5568 84.5998 14.0325 85.8013 14.0325C87.1121 14.0325 87.9859 14.6878 88.0077 15.6709H90.9569C90.9569 13.3771 88.816 11.8916 85.8013 11.8916C82.8085 11.8916 80.8206 13.3553 80.8206 15.6272C80.8206 16.5229 81.0609 17.2001 81.5415 17.6807C82.5027 18.6419 83.726 18.8603 85.6266 19.0569C87.3524 19.2317 88.1388 19.4065 88.1388 20.3458C88.1388 21.1978 87.3305 21.7221 86.1072 21.7221C84.5343 21.7221 83.5513 20.9357 83.5513 19.7342H80.6895C80.6895 22.2901 82.6993 23.863 86.0198 23.863Z" fill="#050505"/>
    <path d="M98.4851 23.8186C101.456 23.8186 103.837 22.0928 104.23 19.4713L101.194 19.0999C100.866 20.3014 99.7959 21.1534 98.507 21.1534C96.8467 21.1534 95.6452 19.799 95.6452 17.8766C95.6452 15.9542 96.8686 14.5998 98.5288 14.5998C99.774 14.5998 100.91 15.4517 101.194 16.6751L104.208 16.2819C103.859 13.6604 101.5 11.9346 98.4851 11.9346C94.8806 11.9346 92.4121 14.3376 92.4121 17.8766C92.4121 21.4156 94.9462 23.8186 98.4851 23.8186Z" fill="#050505"/>
    <path d="M111.555 23.8186C115.247 23.8186 117.759 21.4811 117.759 17.8766C117.759 14.2721 115.247 11.9346 111.555 11.9346C107.841 11.9346 105.351 14.2721 105.351 17.8766C105.351 21.4811 107.841 23.8186 111.555 23.8186ZM111.555 21.066C109.807 21.066 108.584 19.7335 108.584 17.8766C108.584 16.0197 109.807 14.709 111.555 14.709C113.28 14.709 114.504 16.0197 114.504 17.8766C114.504 19.7335 113.28 21.066 111.555 21.066Z" fill="#050505"/>
    <path d="M126.252 11.9346C124.701 11.9346 123.521 12.5244 122.713 13.7041H122.495V12.2841H119.262V28.4935H122.495V22.0709H122.713C123.5 23.2069 124.745 23.8186 126.252 23.8186C129.311 23.8186 131.539 21.3719 131.539 17.8766C131.539 14.3376 129.332 11.9346 126.252 11.9346ZM125.335 14.709C126.187 14.709 126.886 15.0148 127.454 15.6047C128 16.2163 128.284 16.9809 128.284 17.8766C128.284 18.7723 128 19.5368 127.454 20.1485C126.908 20.7602 126.187 21.066 125.335 21.066C124.483 21.066 123.762 20.7602 123.216 20.1485C122.648 19.5368 122.364 18.7723 122.364 17.8766C122.364 16.0634 123.609 14.709 125.335 14.709Z" fill="#050505"/>
    <path d="M138.862 23.8186C141.571 23.8186 143.734 22.5952 144.433 20.5854L141.681 19.8864C141.178 20.8257 140.217 21.4156 138.994 21.4156C137.421 21.4156 136.285 20.4107 136.023 18.8159H144.804C144.826 18.663 144.848 18.3353 144.848 17.8329C144.848 14.3376 142.401 11.9346 138.841 11.9346C135.236 11.9346 132.68 14.3158 132.68 17.7892C132.68 21.3719 135.258 23.8186 138.862 23.8186ZM136.001 16.8062C136.263 15.2988 137.29 14.3376 138.753 14.3376C140.239 14.3376 141.353 15.3425 141.549 16.8062H136.001Z" fill="#050505"/>
    <path d="M11.5252 17.8933C11.5252 21.0757 8.94532 23.6556 5.76285 23.6556C2.58038 23.6556 0.000488281 21.0757 0.000488281 17.8933C0.000488281 14.7108 2.58038 12.1309 5.76285 12.1309C8.94532 12.1309 11.5252 14.7108 11.5252 17.8933Z" fill="#050505"/>
    <path d="M23.6566 5.7624C23.6566 8.9448 21.0767 11.5247 17.8942 11.5247C14.7117 11.5247 12.1318 8.9448 12.1318 5.7624C12.1318 2.5799 14.7117 0 17.8942 0C21.0767 0 23.6566 2.5799 23.6566 5.7624Z" fill="#FF691E"/>
    <path d="M17.8942 23.5036H26.0828L17.8942 12.2822H9.70557L17.8942 23.5036Z" fill="#050505"/>
</svg>
